G75*
%MOIN*%
%OFA0B0*%
%FSLAX24Y24*%
%IPPOS*%
%LPD*%
%AMOC8*
5,1,8,0,0,1.08239X$1,22.5*
%
%ADD10C,0.1340*%
%ADD11C,0.1175*%
%ADD12C,0.0674*%
%ADD13C,0.0476*%
D10*
X001626Y001680D03*
X018626Y010680D03*
X027626Y019680D03*
X041626Y028180D03*
X001626Y028180D03*
X041626Y001680D03*
D11*
X048396Y001550D03*
X050356Y001550D03*
X050356Y004310D03*
X048396Y004310D03*
X041606Y008800D03*
X039646Y008800D03*
X039646Y011560D03*
X041606Y011560D03*
X048396Y011550D03*
X050356Y011550D03*
X050356Y014310D03*
X048396Y014310D03*
X041606Y018800D03*
X039646Y018800D03*
X039646Y021560D03*
X041606Y021560D03*
X059896Y014310D03*
X061856Y014310D03*
X061856Y011550D03*
X059896Y011550D03*
X059896Y004310D03*
X061856Y004310D03*
X061856Y001550D03*
X059896Y001550D03*
X003606Y010550D03*
X001646Y010550D03*
X001646Y013310D03*
X003606Y013310D03*
X003606Y022550D03*
X001646Y022550D03*
X001646Y025310D03*
X003606Y025310D03*
D12*
X017829Y024180D02*
X018422Y024180D01*
X018422Y023180D02*
X017829Y023180D01*
X008626Y015977D02*
X008626Y015383D01*
X007626Y015383D02*
X007626Y015977D01*
X006626Y015977D02*
X006626Y015383D01*
D13*
X007126Y014305D03*
X005626Y014055D03*
X008376Y013180D03*
X007126Y012430D03*
X007626Y011680D03*
X008376Y010430D03*
X009251Y009930D03*
X012001Y009555D03*
X016251Y007430D03*
X008876Y003680D03*
X008876Y003180D03*
X008876Y002680D03*
X012876Y013055D03*
X014876Y013055D03*
X012001Y014430D03*
X011376Y014430D03*
X014126Y014805D03*
X012626Y015805D03*
X019376Y015680D03*
X019876Y015680D03*
X020376Y015680D03*
X020876Y015680D03*
X021376Y015680D03*
X021876Y015680D03*
X021626Y015180D03*
X021126Y015180D03*
X020626Y015180D03*
X020126Y015180D03*
X019626Y015180D03*
X019876Y014680D03*
X020376Y014680D03*
X020876Y014680D03*
X021376Y014680D03*
X021876Y014680D03*
X019376Y014680D03*
X009126Y020430D03*
X009126Y022930D03*
X008126Y022930D03*
X007126Y022930D03*
X006126Y022930D03*
X005126Y022930D03*
X005126Y024180D03*
X006126Y024180D03*
X007126Y024180D03*
X008126Y024180D03*
X009126Y024180D03*
X010126Y024180D03*
X010126Y022930D03*
X010126Y025430D03*
X009126Y025430D03*
X008126Y025430D03*
X007126Y025430D03*
X006126Y025430D03*
X005126Y025430D03*
X003626Y023930D03*
X002626Y023930D03*
X001626Y023930D03*
X001376Y020680D03*
X002376Y020680D03*
X003376Y020680D03*
X003376Y019680D03*
X002376Y019680D03*
X001376Y019680D03*
X033876Y007430D03*
X034626Y006930D03*
X033876Y006430D03*
X034626Y005930D03*
X033876Y005430D03*
X034626Y004930D03*
X033876Y004430D03*
X035626Y009680D03*
X035126Y010180D03*
X035626Y010680D03*
X035126Y011180D03*
X035626Y011680D03*
X035126Y012180D03*
X035626Y012680D03*
X057126Y009180D03*
X057751Y008805D03*
X058376Y009180D03*
X058376Y008430D03*
X057751Y008055D03*
X058376Y007680D03*
X057751Y007305D03*
X058376Y006930D03*
X057126Y006930D03*
X057126Y007680D03*
X057126Y008430D03*
M02*
