G75*
%MOIN*%
%OFA0B0*%
%FSLAX24Y24*%
%IPPOS*%
%LPD*%
%AMOC8*
5,1,8,0,0,1.08239X$1,22.5*
%
%ADD10C,0.1340*%
%ADD11R,0.1064X0.1458*%
%ADD12R,0.0671X0.0867*%
%ADD13R,0.5080X0.2080*%
%ADD14R,0.2500X0.2080*%
%ADD15R,0.2080X0.2500*%
%ADD16R,0.1064X0.1773*%
%ADD17R,0.0474X0.0513*%
%ADD18R,0.0505X0.0493*%
%ADD19R,0.1458X0.1064*%
%ADD20R,0.0493X0.0505*%
%ADD21R,0.0867X0.0671*%
%ADD22R,0.0790X0.0610*%
%ADD23R,0.1080X0.1130*%
%ADD24R,0.0580X0.0380*%
%ADD25R,0.1130X0.1080*%
%ADD26R,0.0380X0.0580*%
%ADD27C,0.1175*%
%ADD28R,0.1220X0.2210*%
%ADD29R,0.1650X0.2840*%
%ADD30R,0.3080X0.3080*%
%ADD31R,0.0552X0.0552*%
%ADD32R,0.0410X0.2370*%
%ADD33R,0.0410X0.1750*%
%ADD34R,0.0470X0.0410*%
%ADD35R,0.0513X0.0474*%
%ADD36R,0.0670X0.0710*%
%ADD37R,0.0550X0.0550*%
%ADD38R,0.4290X0.3460*%
%ADD39R,0.0480X0.1420*%
%ADD40R,0.0480X0.0340*%
%ADD41R,0.0330X0.0780*%
%ADD42R,0.0450X0.0250*%
%ADD43R,0.0430X0.0510*%
%ADD44C,0.0674*%
%ADD45C,0.0476*%
D10*
X001626Y001680D03*
X018626Y010680D03*
X027626Y019680D03*
X041626Y028180D03*
X001626Y028180D03*
X041626Y001680D03*
D11*
X008876Y004650D03*
X008876Y007210D03*
D12*
X032035Y007430D03*
X033216Y007430D03*
X033216Y006430D03*
X032035Y006430D03*
X032035Y005430D03*
X033216Y005430D03*
X033216Y004430D03*
X032035Y004430D03*
X036035Y009680D03*
X037216Y009680D03*
X037216Y010680D03*
X037216Y011680D03*
X036035Y011680D03*
X036035Y010680D03*
X036035Y012680D03*
X037216Y012680D03*
X037216Y018680D03*
X036035Y018680D03*
X036035Y019680D03*
X037216Y019680D03*
X037216Y020680D03*
X036035Y020680D03*
X036035Y021680D03*
X037216Y021680D03*
X033216Y021430D03*
X032035Y021430D03*
X032035Y020430D03*
X033216Y020430D03*
X033216Y022430D03*
X032035Y022430D03*
X032035Y023430D03*
X033216Y023430D03*
X052285Y011930D03*
X053466Y011930D03*
X053466Y010930D03*
X053466Y009930D03*
X052285Y009930D03*
X052285Y010930D03*
X049966Y009430D03*
X048785Y009430D03*
X048785Y008430D03*
X048785Y007430D03*
X049966Y007430D03*
X049966Y008430D03*
X052285Y008930D03*
X053466Y008930D03*
X053466Y006930D03*
X053466Y005930D03*
X052285Y005930D03*
X052285Y006930D03*
X049966Y006430D03*
X048785Y006430D03*
X052285Y004930D03*
X053466Y004930D03*
X053466Y003930D03*
X052285Y003930D03*
D13*
X057626Y018180D03*
X057626Y020680D03*
X057626Y024180D03*
X057626Y026680D03*
D14*
X053836Y026680D03*
X061416Y024180D03*
X053836Y020680D03*
X061416Y018180D03*
D15*
X061626Y020470D03*
X053626Y018390D03*
X053626Y024390D03*
X061626Y026470D03*
D16*
X002626Y019814D03*
X002626Y016546D03*
D17*
X005626Y013515D03*
X005626Y012845D03*
X009791Y012430D03*
X010460Y012430D03*
X010460Y009930D03*
X009791Y009930D03*
X009960Y008805D03*
X009291Y008805D03*
X014041Y008930D03*
X014710Y008930D03*
D18*
X008376Y012086D03*
X008376Y012774D03*
X007626Y013586D03*
X007626Y014274D03*
X010626Y014274D03*
X010626Y013586D03*
X014876Y013586D03*
X014876Y014274D03*
D19*
X013655Y023930D03*
X011096Y023930D03*
D20*
X012531Y009180D03*
X013220Y009180D03*
X013220Y008680D03*
X012531Y008680D03*
D21*
X060876Y008521D03*
X060876Y007339D03*
D22*
X006626Y017120D03*
X006626Y018240D03*
D23*
X055626Y010680D03*
X057626Y010680D03*
X057626Y005680D03*
X055626Y005680D03*
D24*
X055626Y004750D03*
X057626Y004750D03*
X057626Y009750D03*
X055626Y009750D03*
D25*
X032376Y008930D03*
D26*
X033306Y008930D03*
D27*
X039646Y008800D03*
X041606Y008800D03*
X041606Y011560D03*
X039646Y011560D03*
X048396Y011550D03*
X050356Y011550D03*
X050356Y014310D03*
X048396Y014310D03*
X041606Y018800D03*
X039646Y018800D03*
X039646Y021560D03*
X041606Y021560D03*
X059896Y014310D03*
X061856Y014310D03*
X061856Y011550D03*
X059896Y011550D03*
X059896Y004310D03*
X061856Y004310D03*
X061856Y001550D03*
X059896Y001550D03*
X050356Y001550D03*
X048396Y001550D03*
X048396Y004310D03*
X050356Y004310D03*
X003606Y010550D03*
X001646Y010550D03*
X001646Y013310D03*
X003606Y013310D03*
X003606Y022550D03*
X001646Y022550D03*
X001646Y025310D03*
X003606Y025310D03*
D28*
X001716Y006180D03*
X005536Y006180D03*
D29*
X010406Y018430D03*
X014346Y018430D03*
D30*
X032626Y017680D03*
X032626Y012680D03*
X025626Y004680D03*
X020626Y004680D03*
D31*
X011539Y008805D03*
X010712Y008805D03*
X012001Y010267D03*
X012001Y011093D03*
X020751Y024142D03*
X020751Y024968D03*
D32*
X023836Y015180D03*
D33*
X022416Y015180D03*
D34*
X022446Y013980D03*
X022446Y016380D03*
D35*
X012876Y014265D03*
X012876Y013595D03*
X012001Y012515D03*
X012001Y011845D03*
X006626Y012845D03*
X006626Y013515D03*
X020751Y022595D03*
X020751Y023265D03*
D36*
X009556Y011180D03*
D37*
X010836Y010790D03*
X010836Y011570D03*
D38*
X007126Y023930D03*
D39*
X007126Y019820D03*
X007796Y019820D03*
X008466Y019820D03*
X006456Y019820D03*
X005786Y019820D03*
D40*
X008616Y014300D03*
X009636Y014300D03*
X009636Y013930D03*
X009636Y013560D03*
X008616Y013560D03*
D41*
X007126Y011780D03*
X006626Y011780D03*
X006126Y011780D03*
X005626Y011780D03*
X005626Y009580D03*
X006126Y009580D03*
X006626Y009580D03*
X007126Y009580D03*
X013126Y010080D03*
X013626Y010080D03*
X014126Y010080D03*
X014626Y010080D03*
X014626Y012280D03*
X014126Y012280D03*
X013626Y012280D03*
X013126Y012280D03*
D42*
X008806Y011440D03*
X007946Y011440D03*
X007946Y011180D03*
X007946Y010920D03*
X008806Y010920D03*
D43*
X013616Y013590D03*
X014136Y013590D03*
X014136Y014270D03*
X013616Y014270D03*
D44*
X008626Y015383D02*
X008626Y015977D01*
X007626Y015977D02*
X007626Y015383D01*
X006626Y015383D02*
X006626Y015977D01*
X017829Y023180D02*
X018422Y023180D01*
X018422Y024180D02*
X017829Y024180D01*
D45*
X010126Y024180D03*
X009126Y024180D03*
X008126Y024180D03*
X007126Y024180D03*
X006126Y024180D03*
X005126Y024180D03*
X003626Y023930D03*
X002626Y023930D03*
X001626Y023930D03*
X005126Y022930D03*
X006126Y022930D03*
X007126Y022930D03*
X008126Y022930D03*
X009126Y022930D03*
X010126Y022930D03*
X010126Y025430D03*
X009126Y025430D03*
X008126Y025430D03*
X007126Y025430D03*
X006126Y025430D03*
X005126Y025430D03*
X003376Y020680D03*
X002376Y020680D03*
X001376Y020680D03*
X001376Y019680D03*
X002376Y019680D03*
X003376Y019680D03*
X009126Y020430D03*
X012626Y015805D03*
X014126Y014805D03*
X012001Y014430D03*
X011376Y014430D03*
X012876Y013055D03*
X014876Y013055D03*
X019376Y014680D03*
X019876Y014680D03*
X020376Y014680D03*
X020876Y014680D03*
X021376Y014680D03*
X021876Y014680D03*
X021626Y015180D03*
X021126Y015180D03*
X020626Y015180D03*
X020126Y015180D03*
X019626Y015180D03*
X019876Y015680D03*
X020376Y015680D03*
X020876Y015680D03*
X021376Y015680D03*
X021876Y015680D03*
X019376Y015680D03*
X009251Y009930D03*
X008376Y010430D03*
X007626Y011680D03*
X007126Y012430D03*
X008376Y013180D03*
X007126Y014305D03*
X005626Y014055D03*
X012001Y009555D03*
X016251Y007430D03*
X008876Y003680D03*
X008876Y003180D03*
X008876Y002680D03*
X033876Y004430D03*
X034626Y004930D03*
X033876Y005430D03*
X034626Y005930D03*
X033876Y006430D03*
X034626Y006930D03*
X033876Y007430D03*
X035626Y009680D03*
X035126Y010180D03*
X035626Y010680D03*
X035126Y011180D03*
X035626Y011680D03*
X035126Y012180D03*
X035626Y012680D03*
X057126Y009180D03*
X057751Y008805D03*
X058376Y009180D03*
X058376Y008430D03*
X057751Y008055D03*
X058376Y007680D03*
X057751Y007305D03*
X058376Y006930D03*
X057126Y006930D03*
X057126Y007680D03*
X057126Y008430D03*
M02*
