%
M48
M72
T01C0.0236
T02C0.0394
T03C0.0730
T04C0.1260
%
T01
X8876Y2680
X8876Y3180
X8876Y3680
X16251Y7430
X12001Y9555
X9251Y9930
X8376Y10430
X7626Y11680
X7126Y12430
X8376Y13180
X7126Y14305
X5626Y14055
X11376Y14430
X12001Y14430
X14126Y14805
X12626Y15805
X12876Y13055
X14876Y13055
X19376Y14680
X19876Y14680
X20376Y14680
X20876Y14680
X21376Y14680
X21876Y14680
X21626Y15180
X21126Y15180
X20626Y15180
X20126Y15180
X19626Y15180
X19876Y15680
X20376Y15680
X20876Y15680
X21376Y15680
X21876Y15680
X19376Y15680
X9126Y20430
X9126Y22930
X8126Y22930
X7126Y22930
X6126Y22930
X5126Y22930
X5126Y24180
X6126Y24180
X7126Y24180
X8126Y24180
X9126Y24180
X10126Y24180
X10126Y22930
X10126Y25430
X9126Y25430
X8126Y25430
X7126Y25430
X6126Y25430
X5126Y25430
X3626Y23930
X2626Y23930
X1626Y23930
X1376Y20680
X2376Y20680
X3376Y20680
X3376Y19680
X2376Y19680
X1376Y19680
X33876Y7430
X34626Y6930
X33876Y6430
X34626Y5930
X33876Y5430
X34626Y4930
X33876Y4430
X35626Y9680
X35126Y10180
X35626Y10680
X35126Y11180
X35626Y11680
X35126Y12180
X35626Y12680
X57126Y9180
X57751Y8805
X58376Y9180
X58376Y8430
X57751Y8055
X58376Y7680
X57751Y7305
X58376Y6930
X57126Y6930
X57126Y7680
X57126Y8430
T02
X18126Y23180
X18126Y24180
X8626Y15680
X7626Y15680
X6626Y15680
T03
X3606Y13310
X1646Y13310
X1646Y10550
X3606Y10550
X3606Y22550
X1646Y22550
X1646Y25310
X3606Y25310
X39646Y21560
X41606Y21560
X41606Y18800
X39646Y18800
X48396Y14310
X50356Y14310
X50356Y11550
X48396Y11550
X41606Y11560
X39646Y11560
X39646Y8800
X41606Y8800
X48396Y4310
X50356Y4310
X50356Y1550
X48396Y1550
X59896Y1550
X61856Y1550
X61856Y4310
X59896Y4310
X59896Y11550
X61856Y11550
X61856Y14310
X59896Y14310
T04
X1626Y1680
X18626Y10680
X27626Y19680
X41626Y28180
X1626Y28180
X41626Y1680
M30
