<svg xmlns="http://www.w3.org/2000/svg"
   xmlns:xlink="http://www.w3.org/1999/xlink"
   version="1.1"
   id="Page 1" width="100%" height="100%"  viewBox="-6 -6 2838 1398">
<desc>
XCircuit Version 3.8
File "(null)" Page 1
</desc>
<g stroke="black">
<path d="M1408,1296 L1408,1260 1376,1260 1376,1204 1408,1204 1408,1168 " fill="none" stroke-width="2" stroke-linejoin="bevel" stroke-linecap="round" stroke="#000000" />
<path d="M1364,1260 L1364,1204 " fill="none" stroke-width="2" stroke-linejoin="bevel" stroke-linecap="round" stroke="#000000" />
<path d="M1364,1232 L1344,1232 " fill="none" stroke-width="2" stroke-linejoin="bevel" stroke-linecap="round" stroke="#000000" />
<path d="M1380,1268 C1390,1263 1393,1263 1408,1260 C1393,1257 1390,1257 1380,1252 C1382,1258 1382,1262 1380,1268 " fill="#000000" stroke="none" />
<path d="M1408,1026 C1428,1030 1428,1046 1408,1050 " fill="none" stroke-width="2" stroke-linejoin="bevel" stroke-linecap="round" stroke="#000000" />
<path d="M1408,1026 C1388,1022 1388,1034 1408,1030 " fill="none" stroke-width="2" stroke-linejoin="bevel" stroke-linecap="round" stroke="#000000" />
<path d="M1408,966 C1428,970 1428,986 1408,990 " fill="none" stroke-width="2" stroke-linejoin="bevel" stroke-linecap="round" stroke="#000000" />
<path d="M1408,986 C1428,990 1428,1006 1408,1010 " fill="none" stroke-width="2" stroke-linejoin="bevel" stroke-linecap="round" stroke="#000000" />
<path d="M1408,1006 C1428,1010 1428,1026 1408,1030 " fill="none" stroke-width="2" stroke-linejoin="bevel" stroke-linecap="round" stroke="#000000" />
<path d="M1408,986 C1388,982 1388,994 1408,990 " fill="none" stroke-width="2" stroke-linejoin="bevel" stroke-linecap="round" stroke="#000000" />
<path d="M1408,1006 C1388,1002 1388,1014 1408,1010 " fill="none" stroke-width="2" stroke-linejoin="bevel" stroke-linecap="round" stroke="#000000" />
<path d="M1408,1050 L1408,1072 " fill="none" stroke-width="2" stroke-linejoin="bevel" stroke-linecap="round" stroke="#000000" />
<path d="M1408,966 L1408,944 " fill="none" stroke-width="2" stroke-linejoin="bevel" stroke-linecap="round" stroke="#000000" />
<path d="M1504,1280 L1504,1222 " fill="none" stroke-width="2" stroke-linejoin="bevel" stroke-linecap="round" stroke="#000000" />
<path d="M1504,1152 L1504,1210 " fill="none" stroke-width="2" stroke-linejoin="bevel" stroke-linecap="round" stroke="#000000" />
<path d="M1472,1210 L1536,1210 " fill="none" stroke-width="2" stroke-linejoin="bevel" stroke-linecap="round" stroke="#000000" />
<path d="M1472,1222 L1536,1222 " fill="none" stroke-width="2" stroke-linejoin="bevel" stroke-linecap="round" stroke="#000000" />
<path d="M1678,1120 C1674,1140 1658,1140 1654,1120 " fill="none" stroke-width="2" stroke-linejoin="bevel" stroke-linecap="round" stroke="#000000" />
<path d="M1678,1120 C1682,1100 1670,1100 1674,1120 " fill="none" stroke-width="2" stroke-linejoin="bevel" stroke-linecap="round" stroke="#000000" />
<path d="M1738,1120 C1734,1140 1718,1140 1714,1120 " fill="none" stroke-width="2" stroke-linejoin="bevel" stroke-linecap="round" stroke="#000000" />
<path d="M1718,1120 C1714,1140 1698,1140 1694,1120 " fill="none" stroke-width="2" stroke-linejoin="bevel" stroke-linecap="round" stroke="#000000" />
<path d="M1698,1120 C1694,1140 1678,1140 1674,1120 " fill="none" stroke-width="2" stroke-linejoin="bevel" stroke-linecap="round" stroke="#000000" />
<path d="M1718,1120 C1722,1100 1710,1100 1714,1120 " fill="none" stroke-width="2" stroke-linejoin="bevel" stroke-linecap="round" stroke="#000000" />
<path d="M1698,1120 C1702,1100 1690,1100 1694,1120 " fill="none" stroke-width="2" stroke-linejoin="bevel" stroke-linecap="round" stroke="#000000" />
<path d="M1654,1120 L1632,1120 " fill="none" stroke-width="2" stroke-linejoin="bevel" stroke-linecap="round" stroke="#000000" />
<path d="M1738,1120 L1760,1120 " fill="none" stroke-width="2" stroke-linejoin="bevel" stroke-linecap="round" stroke="#000000" />
<path d="M1504,1152 L1504,1120 " fill="none" stroke-width="2" stroke-linejoin="bevel" stroke-linecap="round" stroke="#000000" />
<path d="M1504,1280 L1504,1312 " fill="none" stroke-width="2" stroke-linejoin="bevel" stroke-linecap="round" stroke="#000000" />
<path d="M1408,1168 L1408,1120 1504,1120 " fill="none" stroke-width="2" stroke-linejoin="bevel" stroke-linecap="round" stroke="#000000" />
<path d="M1408,1072 L1408,1120 " fill="none" stroke-width="2" stroke-linejoin="bevel" stroke-linecap="round" stroke="#000000" />
<path d="M1408,944 L1408,912 " fill="none" stroke-width="2" stroke-linejoin="bevel" stroke-linecap="round" stroke="#000000" />
<path d="M1376,912 L1440,912 " fill="none" stroke-width="2" stroke-linejoin="bevel" stroke-linecap="round" stroke="#000000" />
<g transform="matrix(   1    0   -0    1 1376 896)" fill="#000000" >
<text stroke="none" font-family="Helvetica" font-size="40" ><tspan x="0" y="0">48V</tspan>
</text></g>
<path d="M1664,1312 L1664,1344 " fill="none" stroke-width="2" stroke-linejoin="bevel" stroke-linecap="round" stroke="#000000" />
<path d="M1632,1344 L1696,1344 " fill="none" stroke-width="2" stroke-linejoin="bevel" stroke-linecap="round" stroke="#000000" />
<path d="M1646,1358 L1682,1358 " fill="none" stroke-width="2" stroke-linejoin="bevel" stroke-linecap="round" stroke="#000000" />
<path d="M1660,1372 L1668,1372 " fill="none" stroke-width="2" stroke-linejoin="bevel" stroke-linecap="round" stroke="#000000" />
<ellipse cx="1504" cy="1312" rx="6" ry="6" fill="#000000" stroke="none" />
<ellipse cx="1408" cy="1120" rx="6" ry="6" fill="#000000" stroke="none" />
<ellipse cx="1504" cy="1120" rx="6" ry="6" fill="#000000" stroke="none" />
<ellipse cx="1664" cy="1312" rx="6" ry="6" fill="#000000" stroke="none" />
<path d="M1344,1232 L1280,1232 " fill="none" stroke-width="2" stroke-linejoin="bevel" stroke-linecap="round" stroke="#000000" />
<path d="M1264,1216 L1280,1232 1264,1248 " fill="none" stroke-width="2" stroke-linejoin="bevel" stroke-linecap="round" stroke="#000000" />
<path d="M1248,1216 L1264,1232 1248,1248 " fill="none" stroke-width="2" stroke-linejoin="bevel" stroke-linecap="round" stroke="#000000" />
<g transform="matrix(   1    0   -0    1 1136 1216)" fill="#000000" >
<text stroke="none" font-family="Helvetica" font-size="40" ><tspan x="0" y="0">Gate</tspan>
</text></g>
<g transform="matrix(   1    0   -0    1 1136 1248)" fill="#000000" >
<text stroke="none" font-family="Helvetica" font-size="40" ><tspan x="0" y="0">Drive</tspan>
</text></g>
<path d="M1300,1340 L1342,1298 " fill="none" stroke-width="1.6" stroke-linejoin="bevel" stroke-linecap="round" stroke="#000000" />
<path d="M1342,1309 C1346,1299 1348,1296 1356,1284 C1344,1292 1341,1294 1331,1298 C1336,1301 1339,1304 1342,1309 " fill="#000000" stroke="none" />
<path d="M1408,1296 L1408,1312 " fill="none" stroke-width="2" stroke-linejoin="bevel" stroke-linecap="round" stroke="#000000" />
<path d="M1408,1312 L1664,1312 " fill="none" stroke-width="2" stroke-linejoin="bevel" stroke-linecap="round" stroke="#000000" />
<path d="M1664,1312 L1776,1312 " fill="none" stroke-width="2" stroke-linejoin="bevel" stroke-linecap="round" stroke="#000000" />
<path d="M1760,1120 L1792,1120 " fill="none" stroke-width="2" stroke-linejoin="bevel" stroke-linecap="round" stroke="#000000" />
<path d="M1776,1312 L1792,1312 " fill="none" stroke-width="2" stroke-linejoin="bevel" stroke-linecap="round" stroke="#000000" />
<path d="M1792,1120 L1840,1120 " fill="none" stroke-width="2" stroke-linejoin="bevel" stroke-linecap="round" stroke="#000000" />
<path d="M1792,1312 L1840,1312 " fill="none" stroke-width="2" stroke-linejoin="bevel" stroke-linecap="round" stroke="#000000" />
<path d="M1840,1152 L1840,1180 " fill="none" stroke-width="2" stroke-linejoin="bevel" stroke-linecap="round" stroke="#000000" />
<path d="M1840,1280 L1840,1252 " fill="none" stroke-width="2" stroke-linejoin="bevel" stroke-linecap="round" stroke="#000000" />
<path d="M1840,1252 L1854,1246 1826,1234 1854,1222 1826,1210 1854,1198 1826,1186 1840,1180 " fill="none" stroke-width="2" stroke-linejoin="bevel" stroke-linecap="round" stroke="#000000" />
<path d="M1840,1120 L1840,1152 " fill="none" stroke-width="2" stroke-linejoin="bevel" stroke-linecap="round" stroke="#000000" />
<path d="M1840,1280 L1840,1312 " fill="none" stroke-width="2" stroke-linejoin="bevel" stroke-linecap="round" stroke="#000000" />
<path d="M2096,896 L2096,1344 2800,1344 " fill="none" stroke-width="2" stroke-linejoin="bevel" stroke-linecap="round" stroke="#000000" />
<path d="M2096,1344 C2096,1344 2240,480 2416,1344 " fill="none" stroke-width="2" stroke-linejoin="bevel" stroke-linecap="round" stroke="#ff0000" />
<path d="M2080,896 L2112,896 2096,864 2080,896 " fill="none" stroke-width="2" stroke-linejoin="bevel" stroke-linecap="round" stroke="#000000" />
<path d="M2800,1328 L2800,1360 2832,1344 2800,1328 " fill="none" stroke-width="2" stroke-linejoin="bevel" stroke-linecap="round" stroke="#000000" />
<path d="M2416,1344 C2416,1344 2560,608 2752,1344 " fill="none" stroke-width="2" stroke-linejoin="bevel" stroke-linecap="round" stroke="#0000ff" />
<path d="M1632,1120 L1574,1120 " fill="none" stroke-width="2" stroke-linejoin="bevel" stroke-linecap="round" stroke="#000000" />
<path d="M1504,1120 L1562,1120 " fill="none" stroke-width="2" stroke-linejoin="bevel" stroke-linecap="round" stroke="#000000" />
<path d="M1562,1152 L1562,1088 " fill="none" stroke-width="2" stroke-linejoin="bevel" stroke-linecap="round" stroke="#000000" />
<path d="M1574,1152 L1574,1088 " fill="none" stroke-width="2" stroke-linejoin="bevel" stroke-linecap="round" stroke="#000000" />
<path d="M1456,1072 L1456,1264 1776,1264 1776,1072 z" fill="none" style="stroke-dasharray:1,4" stroke-width="2" stroke-linecap="butt" stroke-linejoin="bevel" stroke="#000000" />
<g transform="matrix(   1    0   -0    1 1488 1008)" fill="#000000" >
<text stroke="none" font-family="Helvetica" font-size="40" ><tspan x="0" y="0">Amplifier Output</tspan>
</text></g>
<g transform="matrix(   1    0   -0    1 1552 1056)" fill="#000000" >
<text stroke="none" font-family="Helvetica" font-size="40" ><tspan x="0" y="0">Network</tspan>
</text></g>
<g transform="matrix(   1    0   -0    1 1296 1008)" fill="#000000" >
<text stroke="none" font-family="Helvetica" font-size="40" ><tspan x="0" y="0">RFC</tspan>
</text></g>
<g transform="matrix(   1    0   -0    1 1216 1392)" fill="#000000" >
<text stroke="none" font-family="Helvetica" font-size="40" ><tspan x="0" y="0">GaN FET</tspan>
</text></g>
<g transform="matrix(   1    0   -0    1 1872 1232)" fill="#000000" >
<text stroke="none" font-family="Helvetica" font-size="40" ><tspan x="0" y="0">Load</tspan>
</text></g>
<g transform="matrix(   1    0   -0    1 2224 928)" fill="#ff0000" >
<text stroke="none" font-family="Helvetica" font-size="40" ><tspan x="0" y="0">Vds</tspan>
</text></g>
<g transform="matrix(   1    0   -0    1 2560 992)" fill="#0000ff" >
<text stroke="none" font-family="Helvetica" font-size="40" ><tspan x="0" y="0">Id</tspan>
</text></g>
</g>
</svg>
